<svg width="670" height="200" viewBox="0 0 670 200" fill="none" xmlns="http://www.w3.org/2000/svg">
<g clip-path="url(#clip0_2_23)">
<path d="M256.337 54.981H273.168V91.9832H314.501V54.981H331.332V142.475H314.501V105.101H273.168V142.475H256.337V54.981Z" fill="#EEF0F2"/>
<path d="M348.657 53.8672L360.29 42.2344L372.047 53.8672L360.29 65.6238L348.657 53.8672ZM352.246 74.9053H368.705V142.475H352.246V74.9053Z" fill="#EEF0F2"/>
<path d="M379.843 74.9053H397.663L410.039 115.249L413.875 129.109L418.083 115.125L431.943 74.9053H449.145L423.775 142.475H403.232L379.843 74.9053Z" fill="#EEF0F2"/>
<path d="M455.08 109.804C455.08 82.2067 469.064 73.2965 488.122 73.2965C507.675 73.2965 515.595 86.1668 515.595 107.329V113.269H471.539C471.539 128.119 480.821 130.594 492.825 130.594C497.527 130.594 505.571 128.985 511.14 127.872L513.739 140.618C508.17 142.351 499.136 143.96 489.855 143.96C468.569 143.96 455.08 136.287 455.08 109.804ZM498.641 102.255C498.765 92.107 494.681 85.0531 486.513 85.0531C478.222 85.0531 472.653 91.117 471.91 102.255H498.641Z" fill="#EEF0F2"/>
<path d="M526.362 109.309C526.362 86.5381 539.975 73.1728 560.023 73.1728C582.546 73.1728 592.941 86.4144 592.941 108.69C592.941 131.956 578.586 143.96 559.033 143.96C538.118 143.96 526.362 130.842 526.362 109.309ZM576.234 108.69C576.234 97.1809 573.017 86.2906 559.651 86.2906C546.534 86.2906 542.945 97.1809 542.945 108.814C542.945 121.313 547.029 130.718 559.899 130.718C573.017 130.718 576.234 120.942 576.234 108.69Z" fill="#EEF0F2"/>
<path d="M608.163 74.9053H624.622V82.083C629.572 78.4942 637.863 73.1728 647.269 73.1728C667.935 73.1728 669.297 85.6719 669.297 99.656V142.475H652.961V101.512C652.961 91.2408 650.981 87.5282 641.947 87.5282C635.141 87.5282 628.706 90.622 624.622 92.8495V142.475H608.163V74.9053Z" fill="#EEF0F2"/>
<path d="M18.3155 36.6012C12.7467 39.8129 8.12207 44.4346 4.90684 50.0012C1.69161 55.5679 -0.000762243 61.8832 2.57545e-07 68.3117V131.698C0.00445166 138.122 1.6993 144.431 4.91426 149.992C8.12923 155.553 12.7511 160.17 18.3155 163.379L36.631 173.947V26.0377L18.3155 36.6012Z" fill="url(#paint0_linear_2_23)"/>
<path d="M164.711 36.6012L146.395 26.0377V173.967L164.711 163.399C170.273 160.187 174.893 155.57 178.108 150.009C181.322 144.449 183.019 138.141 183.026 131.718V68.3117C183.024 61.8838 181.33 55.5697 178.115 50.0035C174.9 44.4374 170.277 39.8152 164.711 36.6012Z" fill="url(#paint1_linear_2_23)"/>
<path d="M91.5081 113.402C85.0774 113.391 78.7583 115.082 73.1926 118.303V195.099C78.7577 198.309 85.069 199.998 91.4932 199.998C97.9175 199.998 104.229 198.309 109.794 195.099V118.308C104.237 115.09 97.9291 113.398 91.5081 113.402Z" fill="#FFA600"/>
<path d="M73.2075 4.90556V81.6771C78.7725 84.8866 85.0838 86.5761 91.5081 86.5761C97.9323 86.5761 104.244 84.8866 109.809 81.6771V4.90556C104.245 1.69265 97.933 0.00115967 91.5081 0.00115967C85.0831 0.00115967 78.7714 1.69265 73.2075 4.90556Z" fill="#FF5500"/>
</g>
<defs>
<linearGradient id="paint0_linear_2_23" x1="18.3006" y1="173.967" x2="18.3006" y2="26.0377" gradientUnits="userSpaceOnUse">
<stop stop-color="#FFA600"/>
<stop offset="1" stop-color="#FF5500"/>
</linearGradient>
<linearGradient id="paint1_linear_2_23" x1="164.711" y1="173.967" x2="164.711" y2="26.0377" gradientUnits="userSpaceOnUse">
<stop stop-color="#FFA600"/>
<stop offset="1" stop-color="#FFD500"/>
</linearGradient>
<clipPath id="clip0_2_23">
<rect width="669.297" height="200" fill="white"/>
</clipPath>
</defs>
</svg>
